<svg width="78" height="109" viewBox="0 0 78 109" fill="none" xmlns="http://www.w3.org/2000/svg">
<g id="Group 4">
<path id="Vector 2" d="M26.761 11.6793C26.761 3.82055 17.3734 1.56608 14.0401 2.06608C10.2068 1.89942 2.66096 5.17932 2.26096 13.1793C1.86096 21.1793 2.03991 67.6793 2.03991 67.6793C2.03991 67.6793 2.26096 107.179 40.761 107.179C40.761 107.179 54.0398 108.679 66.0398 99.566C78.0398 90.4528 76.5398 78.3618 74.5398 76.066C72.5398 73.7702 68.8454 64.9528 56.5398 77.566C44.2342 90.1793 27.761 80.066 27.761 67.6793V51.1793H36.5401C40.8192 51.1793 50.0401 49.566 50.0401 38.066C50.0401 26.566 39.8192 26.6793 36.5401 26.6793H26.761V11.6793Z" fill="#5D5791" stroke="#5D5791" stroke-width="3"/>
</g>
</svg>
